<svg id="圖層_1" data-name="圖層 1" xmlns="http://www.w3.org/2000/svg" xmlns:xlink="http://www.w3.org/1999/xlink" viewBox="0 0 266.41 77.91"><defs><linearGradient id="未命名漸層_42" x1="44.93" y1="77.91" x2="44.93" gradientUnits="userSpaceOnUse"><stop offset="0" stop-color="#263196"/><stop offset="1" stop-color="#3ec6f5"/></linearGradient><linearGradient id="未命名漸層_3" x1="33.69" y1="77.91" x2="33.69" gradientUnits="userSpaceOnUse"><stop offset="0" stop-color="#3fb0fc"/><stop offset="1" stop-color="#9eddff"/></linearGradient></defs><title>工作區域 1</title><polygon points="33.7 0 56.16 0 89.86 58.42 78.63 77.91 56.16 77.91 44.93 58.42 33.7 77.91 11.23 77.91 0 58.42 33.7 0" style="fill-rule:evenodd;fill:url(#未命名漸層_42)"/><polygon points="33.7 0 67.38 58.42 56.16 77.91 44.93 58.42 44.93 58.42 33.7 38.94 11.23 77.91 0 58.42 33.7 0" style="fill-rule:evenodd;fill:url(#未命名漸層_3)"/><path d="M125.76,43.51H109.15l-3.58,8h-3.28l13.63-29.82H119l13.63,29.82h-3.32ZM124.61,41l-7.16-16L110.3,41Z"/><path d="M143.13,21.66h3.15V51.48h-3.15Z"/><path d="M186.44,21.66V51.48h-3.11V37.72H164.68V51.48h-3.15V21.66h3.15V35h18.65V21.66Z"/><path d="M220.38,43.51H203.77l-3.58,8h-3.28l13.63-29.82h3.11l13.63,29.82H224ZM219.23,41l-7.16-16-7.15,16Z"/><path d="M235.11,36.57c0-8.69,6.65-15.16,15.67-15.16s15.63,6.43,15.63,15.16-6.68,15.16-15.63,15.16S235.11,45.26,235.11,36.57Zm28.15,0a12.08,12.08,0,0,0-12.48-12.35c-7.19,0-12.56,5.24-12.56,12.35s5.37,12.35,12.56,12.35A12.08,12.08,0,0,0,263.26,36.57Z"/></svg>